<svg width="48" height="48" viewBox="0 0 48 48" fill="none" xmlns="http://www.w3.org/2000/svg">
<path d="M37.8838 11.5932C35.2945 10.3818 32.526 9.50133 29.6315 9C29.276 9.64268 28.8607 10.5071 28.5744 11.1948C25.4975 10.732 22.4489 10.732 19.4286 11.1948C19.1423 10.5071 18.7176 9.64268 18.3589 9C15.4613 9.50133 12.6896 10.385 10.1003 11.5996C4.87774 19.4916 3.46198 27.1876 4.16986 34.7743C7.63375 37.3611 10.9907 38.9325 14.291 39.9607C15.1058 38.8392 15.8326 37.6471 16.4586 36.3907C15.2663 35.9376 14.1242 35.3785 13.0451 34.7294C13.3314 34.5173 13.6114 34.2955 13.882 34.0674C20.4637 37.1458 27.6148 37.1458 34.1179 34.0674C34.3916 34.2955 34.6716 34.5173 34.9547 34.7294C33.8725 35.3817 32.7273 35.9408 31.5349 36.3939C32.161 37.6471 32.8846 38.8425 33.7026 39.9639C37.0061 38.9356 40.3661 37.3643 43.83 34.7743C44.6606 25.9794 42.4111 18.3541 37.8838 11.5932ZM17.3553 30.1086C15.3795 30.1086 13.7593 28.2641 13.7593 26.018C13.7593 23.7718 15.3449 21.9242 17.3553 21.9242C19.3657 21.9242 20.9859 23.7686 20.9513 26.018C20.9545 28.2641 19.3657 30.1086 17.3553 30.1086ZM30.6446 30.1086C28.6688 30.1086 27.0485 28.2641 27.0485 26.018C27.0485 23.7718 28.6342 21.9242 30.6446 21.9242C32.6549 21.9242 34.2752 23.7686 34.2406 26.018C34.2406 28.2641 32.6549 30.1086 30.6446 30.1086Z" fill="#5865F2"/>
</svg>
