<svg width="256" height="256" viewBox="0 0 256 256" fill="none" xmlns="http://www.w3.org/2000/svg">
<path fill-rule="evenodd" clip-rule="evenodd" d="M217.96 201.293C199.092 220.332 172.923 232.125 144 232.125C86.4933 232.125 39.875 185.506 39.875 128C39.875 70.4935 86.4933 23.875 144 23.875C173.029 23.875 199.283 35.7542 218.167 54.9161L223.736 49.3474C203.426 28.7601 175.203 16 144 16C82.1441 16 32 66.1442 32 128C32 189.856 82.1441 240 144 240C175.098 240 203.235 227.326 223.529 206.862L217.96 201.293ZM212.598 60.4849C195.14 42.7482 170.854 31.75 144 31.75C90.8426 31.75 47.75 74.8429 47.75 128C47.75 181.157 90.8426 224.25 144 224.25C170.748 224.25 194.948 213.339 212.392 195.724L206.823 190.157C190.805 206.346 168.574 216.375 144 216.375C95.1918 216.375 55.625 176.809 55.625 128C55.625 79.1914 95.1918 39.625 144 39.625C168.68 39.625 190.996 49.7405 207.03 66.0527L212.598 60.4849ZM144.437 46.625C167.063 46.625 187.52 55.9091 202.208 70.8755L196.639 76.4434C183.377 62.9022 164.889 54.5 144.437 54.5C104.086 54.5 71.375 87.2108 71.375 127.562C71.375 167.914 104.086 200.625 144.437 200.625C164.56 200.625 182.783 192.49 195.996 179.329L201.565 184.898C186.926 199.483 166.735 208.5 144.437 208.5C99.737 208.5 63.5 172.263 63.5 127.562C63.5 82.8623 99.737 46.625 144.437 46.625ZM190.117 173.45C178.375 185.365 162.05 192.75 144 192.75C108.24 192.75 79.25 163.76 79.25 128C79.25 92.2395 108.24 63.25 144 63.25C162.156 63.25 178.566 70.7225 190.323 82.7598L184.754 88.3285C174.422 77.7166 159.981 71.125 144 71.125C112.589 71.125 87.125 96.5889 87.125 128C87.125 159.411 112.589 184.875 144 184.875C159.875 184.875 174.231 178.371 184.549 167.882L190.117 173.45ZM144 79C157.806 79 170.279 84.7097 179.185 93.8972L173.616 99.4668C166.136 91.7046 155.632 86.875 144 86.875C121.287 86.875 102.875 105.288 102.875 128C102.875 150.712 121.287 169.125 144 169.125C155.526 169.125 165.945 164.383 173.411 156.744L178.98 162.313C170.088 171.377 157.701 177 144 177C116.938 177 95 155.062 95 128C95 100.938 116.938 79 144 79ZM168.046 105.036C161.992 98.6986 153.457 94.75 144 94.75C125.637 94.75 110.75 109.637 110.75 128C110.75 146.363 125.637 161.25 144 161.25C153.351 161.25 161.801 157.389 167.842 151.176L162.273 145.606C157.658 150.395 151.177 153.375 144 153.375C129.986 153.375 118.625 142.015 118.625 128C118.625 113.985 129.986 102.625 144 102.625C151.283 102.625 157.849 105.693 162.476 110.607L168.046 105.036ZM144 110.5C149.108 110.5 153.705 112.688 156.904 116.179L151.326 121.757C149.56 119.688 146.933 118.375 144 118.375C138.684 118.375 134.375 122.684 134.375 128C134.375 133.316 138.684 137.625 144 137.625C146.828 137.625 149.371 136.406 151.131 134.464L156.704 140.036C153.514 143.401 149.002 145.5 144 145.5C134.335 145.5 126.5 137.665 126.5 128C126.5 118.335 134.335 110.5 144 110.5Z" fill="white"/>
</svg>
