<svg width="256" height="256" viewBox="0 0 256 256" fill="none" xmlns="http://www.w3.org/2000/svg">
<path d="M227.817 142.092C227.817 205.002 176.818 256 113.908 256C50.9985 256 0 205.002 0 142.092C0 79.1821 50.9985 28.1836 113.908 28.1836C176.818 28.1836 227.817 79.1821 227.817 142.092ZM38.2732 142.092C38.2732 183.864 72.1362 217.727 113.908 217.727C155.68 217.727 189.543 183.864 189.543 142.092C189.543 100.32 155.68 66.4568 113.908 66.4568C72.1362 66.4568 38.2732 100.32 38.2732 142.092Z" fill="url(#paint0_linear_5_149)"/>
<circle cx="227.817" cy="28.1835" r="28.1835" fill="#3ECF8E"/>
<circle cx="112.734" cy="140.917" r="44.6239" fill="#3ECF8E"/>
<defs>
<linearGradient id="paint0_linear_5_149" x1="112.9" y1="141.084" x2="227.817" y2="256" gradientUnits="userSpaceOnUse">
<stop stop-color="#3ECF8E"/>
<stop offset="1" stop-color="#1F6948"/>
</linearGradient>
</defs>
</svg>
