<svg width="566" height="109" viewBox="0 0 566 109" fill="none" xmlns="http://www.w3.org/2000/svg">
<path d="M97 60.5C97 87.2858 75.2858 109 48.5 109C21.7142 109 0 87.2858 0 60.5C0 33.7142 21.7142 12 48.5 12C75.2858 12 97 33.7142 97 60.5ZM16.296 60.5C16.296 78.2858 30.7142 92.704 48.5 92.704C66.2858 92.704 80.704 78.2858 80.704 60.5C80.704 42.7142 66.2858 28.296 48.5 28.296C30.7142 28.296 16.296 42.7142 16.296 60.5Z" fill="url(#paint0_linear_5_125)"/>
<circle cx="97" cy="12" r="12" fill="#3ECF8E"/>
<circle cx="48" cy="60" r="19" fill="#3ECF8E"/>
<path d="M174.523 87.799C170.794 87.799 167.417 86.8402 164.391 84.9226C161.387 82.9837 159.001 80.1392 157.232 76.3892C155.485 72.6179 154.612 67.9943 154.612 62.5185C154.612 56.8935 155.517 52.2166 157.328 48.4879C159.139 44.7379 161.547 41.9361 164.551 40.0824C167.577 38.2074 170.89 37.2699 174.491 37.2699C177.239 37.2699 179.53 37.7386 181.362 38.6761C183.216 39.5923 184.707 40.7429 185.837 42.1278C186.987 43.4915 187.861 44.8338 188.457 46.1548H188.873V21.5455H202.456V87H189.033V79.1378H188.457C187.818 80.5014 186.913 81.8544 185.741 83.1967C184.59 84.5178 183.088 85.6151 181.234 86.4886C179.402 87.3622 177.165 87.799 174.523 87.799ZM178.837 76.9645C181.032 76.9645 182.886 76.3679 184.398 75.1747C185.933 73.9602 187.104 72.2663 187.914 70.093C188.745 67.9197 189.161 65.3736 189.161 62.4545C189.161 59.5355 188.756 57 187.946 54.848C187.136 52.696 185.964 51.0341 184.43 49.8622C182.896 48.6903 181.032 48.1044 178.837 48.1044C176.6 48.1044 174.714 48.7116 173.18 49.9261C171.646 51.1406 170.485 52.8239 169.697 54.9759C168.908 57.1278 168.514 59.6207 168.514 62.4545C168.514 65.3097 168.908 67.8345 169.697 70.0291C170.506 72.2024 171.668 73.907 173.18 75.1428C174.714 76.3572 176.6 76.9645 178.837 76.9645ZM236.022 87.9588C230.972 87.9588 226.626 86.9361 222.982 84.8906C219.36 82.8239 216.569 79.9048 214.609 76.1335C212.649 72.3409 211.669 67.8558 211.669 62.6783C211.669 57.6286 212.649 53.1967 214.609 49.3828C216.569 45.5689 219.328 42.5966 222.887 40.4659C226.466 38.3352 230.664 37.2699 235.479 37.2699C238.718 37.2699 241.732 37.7919 244.524 38.8359C247.336 39.8587 249.786 41.4034 251.874 43.4702C253.984 45.5369 255.624 48.1364 256.796 51.2685C257.968 54.3793 258.554 58.0227 258.554 62.1989V65.9382H217.102V57.5007H245.738C245.738 55.5405 245.312 53.804 244.46 52.2912C243.607 50.7784 242.425 49.5959 240.912 48.7436C239.421 47.87 237.684 47.4332 235.703 47.4332C233.636 47.4332 231.803 47.9126 230.205 48.8714C228.629 49.8089 227.393 51.0767 226.498 52.6747C225.603 54.2514 225.145 56.0092 225.124 57.9482V65.9702C225.124 68.3991 225.571 70.4979 226.466 72.2663C227.382 74.0348 228.671 75.3984 230.333 76.3572C231.995 77.3161 233.966 77.7955 236.246 77.7955C237.759 77.7955 239.144 77.5824 240.401 77.1562C241.658 76.7301 242.734 76.0909 243.629 75.2386C244.524 74.3864 245.205 73.3423 245.674 72.1065L258.267 72.9375C257.627 75.9631 256.317 78.6051 254.335 80.8636C252.375 83.1009 249.84 84.848 246.729 86.1051C243.639 87.3409 240.07 87.9588 236.022 87.9588ZM267.439 87V37.9091H280.415V46.5703H280.99C282.013 43.6939 283.718 41.4247 286.104 39.7628C288.49 38.1009 291.345 37.2699 294.669 37.2699C298.036 37.2699 300.901 38.1115 303.267 39.7947C305.632 41.4567 307.208 43.7152 307.997 46.5703H308.508C309.509 43.7578 311.32 41.5099 313.941 39.8267C316.583 38.1222 319.705 37.2699 323.306 37.2699C327.887 37.2699 331.605 38.7294 334.46 41.6484C337.336 44.5462 338.774 48.6584 338.774 53.9851V87H325.191V56.6697C325.191 53.9425 324.467 51.897 323.018 50.5334C321.569 49.1697 319.758 48.4879 317.585 48.4879C315.113 48.4879 313.185 49.2763 311.8 50.853C310.415 52.4084 309.722 54.4645 309.722 57.0213V87H296.523V56.3821C296.523 53.9744 295.83 52.0568 294.445 50.6293C293.082 49.2017 291.281 48.4879 289.044 48.4879C287.531 48.4879 286.168 48.8714 284.953 49.6385C283.76 50.3842 282.812 51.4389 282.109 52.8026C281.406 54.1449 281.054 55.7216 281.054 57.5327V87H267.439ZM371.709 87.9588C366.745 87.9588 362.452 86.9041 358.829 84.7947C355.229 82.6641 352.448 79.7024 350.488 75.9098C348.528 72.0959 347.547 67.6747 347.547 62.6463C347.547 57.5753 348.528 53.1435 350.488 49.3509C352.448 45.5369 355.229 42.5753 358.829 40.4659C362.452 38.3352 366.745 37.2699 371.709 37.2699C376.674 37.2699 380.956 38.3352 384.557 40.4659C388.18 42.5753 390.971 45.5369 392.931 49.3509C394.891 53.1435 395.871 57.5753 395.871 62.6463C395.871 67.6747 394.891 72.0959 392.931 75.9098C390.971 79.7024 388.18 82.6641 384.557 84.7947C380.956 86.9041 376.674 87.9588 371.709 87.9588ZM371.773 77.4119C374.032 77.4119 375.917 76.7727 377.43 75.4943C378.943 74.1946 380.083 72.4261 380.85 70.1889C381.638 67.9517 382.032 65.4055 382.032 62.5504C382.032 59.6953 381.638 57.1491 380.85 54.9119C380.083 52.6747 378.943 50.9062 377.43 49.6065C375.917 48.3068 374.032 47.657 371.773 47.657C369.493 47.657 367.576 48.3068 366.02 49.6065C364.486 50.9062 363.325 52.6747 362.537 54.9119C361.77 57.1491 361.386 59.6953 361.386 62.5504C361.386 65.4055 361.77 67.9517 362.537 70.1889C363.325 72.4261 364.486 74.1946 366.02 75.4943C367.576 76.7727 369.493 77.4119 371.773 77.4119ZM418.723 87.9268C415.591 87.9268 412.8 87.3835 410.349 86.2969C407.899 85.1889 405.96 83.5589 404.532 81.407C403.126 79.2337 402.423 76.5277 402.423 73.2891C402.423 70.5618 402.924 68.2713 403.925 66.4176C404.927 64.5639 406.29 63.0724 408.016 61.9432C409.742 60.8139 411.702 59.9616 413.897 59.3864C416.113 58.8111 418.435 58.4062 420.864 58.1719C423.719 57.8736 426.02 57.5966 427.768 57.3409C429.515 57.0639 430.782 56.6591 431.571 56.1264C432.359 55.5937 432.753 54.8054 432.753 53.7614V53.5696C432.753 51.5455 432.114 49.9794 430.836 48.8714C429.579 47.7635 427.789 47.2095 425.466 47.2095C423.016 47.2095 421.067 47.7528 419.618 48.8395C418.169 49.9048 417.21 51.2472 416.741 52.8665L404.149 51.8438C404.788 48.8608 406.045 46.2827 407.92 44.1094C409.795 41.9148 412.214 40.2315 415.175 39.0597C418.158 37.8665 421.61 37.2699 425.53 37.2699C428.258 37.2699 430.868 37.5895 433.361 38.2287C435.875 38.8679 438.101 39.8587 440.04 41.201C442.001 42.5433 443.545 44.2692 444.675 46.3786C445.804 48.4666 446.368 50.9702 446.368 53.8892V87H433.457V80.1925H433.073C432.285 81.7266 431.23 83.0795 429.909 84.2514C428.588 85.402 427.001 86.3075 425.147 86.968C423.293 87.6072 421.152 87.9268 418.723 87.9268ZM422.622 78.5305C424.625 78.5305 426.393 78.1364 427.927 77.348C429.461 76.5384 430.665 75.4517 431.539 74.0881C432.412 72.7244 432.849 71.1797 432.849 69.4538V64.2443C432.423 64.5213 431.837 64.777 431.091 65.0114C430.367 65.2244 429.547 65.4268 428.631 65.6186C427.714 65.7891 426.798 65.9489 425.882 66.098C424.966 66.2259 424.135 66.343 423.389 66.4496C421.791 66.6839 420.395 67.0568 419.202 67.5682C418.009 68.0795 417.082 68.772 416.422 69.6456C415.761 70.4979 415.431 71.5632 415.431 72.8416C415.431 74.6953 416.102 76.1122 417.444 77.0923C418.808 78.0511 420.534 78.5305 422.622 78.5305ZM456.931 105.409V37.9091H470.355V46.1548H470.962C471.558 44.8338 472.421 43.4915 473.551 42.1278C474.701 40.7429 476.193 39.5923 478.025 38.6761C479.879 37.7386 482.18 37.2699 484.928 37.2699C488.508 37.2699 491.811 38.2074 494.836 40.0824C497.862 41.9361 500.28 44.7379 502.091 48.4879C503.902 52.2166 504.808 56.8935 504.808 62.5185C504.808 67.9943 503.923 72.6179 502.155 76.3892C500.408 80.1392 498.021 82.9837 494.996 84.9226C491.992 86.8402 488.625 87.799 484.896 87.799C482.254 87.799 480.007 87.3622 478.153 86.4886C476.32 85.6151 474.818 84.5178 473.646 83.1967C472.475 81.8544 471.58 80.5014 470.962 79.1378H470.546V105.409H456.931ZM470.259 62.4545C470.259 65.3736 470.664 67.9197 471.473 70.093C472.283 72.2663 473.455 73.9602 474.989 75.1747C476.523 76.3679 478.387 76.9645 480.582 76.9645C482.798 76.9645 484.673 76.3572 486.207 75.1428C487.741 73.907 488.902 72.2024 489.691 70.0291C490.5 67.8345 490.905 65.3097 490.905 62.4545C490.905 59.6207 490.511 57.1278 489.722 54.9759C488.934 52.8239 487.773 51.1406 486.239 49.9261C484.705 48.7116 482.819 48.1044 480.582 48.1044C478.366 48.1044 476.491 48.6903 474.957 49.8622C473.444 51.0341 472.283 52.696 471.473 54.848C470.664 57 470.259 59.5355 470.259 62.4545ZM513.884 105.409V37.9091H527.308V46.1548H527.915C528.512 44.8338 529.374 43.4915 530.504 42.1278C531.654 40.7429 533.146 39.5923 534.978 38.6761C536.832 37.7386 539.133 37.2699 541.882 37.2699C545.461 37.2699 548.764 38.2074 551.789 40.0824C554.815 41.9361 557.233 44.7379 559.044 48.4879C560.855 52.2166 561.761 56.8935 561.761 62.5185C561.761 67.9943 560.877 72.6179 559.108 76.3892C557.361 80.1392 554.975 82.9837 551.949 84.9226C548.945 86.8402 545.578 87.799 541.85 87.799C539.208 87.799 536.96 87.3622 535.106 86.4886C533.274 85.6151 531.771 84.5178 530.6 83.1967C529.428 81.8544 528.533 80.5014 527.915 79.1378H527.499V105.409H513.884ZM527.212 62.4545C527.212 65.3736 527.617 67.9197 528.426 70.093C529.236 72.2663 530.408 73.9602 531.942 75.1747C533.476 76.3679 535.34 76.9645 537.535 76.9645C539.751 76.9645 541.626 76.3572 543.16 75.1428C544.694 73.907 545.855 72.2024 546.644 70.0291C547.453 67.8345 547.858 65.3097 547.858 62.4545C547.858 59.6207 547.464 57.1278 546.676 54.9759C545.887 52.8239 544.726 51.1406 543.192 49.9261C541.658 48.7116 539.772 48.1044 537.535 48.1044C535.319 48.1044 533.444 48.6903 531.91 49.8622C530.397 51.0341 529.236 52.696 528.426 54.848C527.617 57 527.212 59.5355 527.212 62.4545Z" fill="black"/>
<defs>
<linearGradient id="paint0_linear_5_125" x1="48.0708" y1="60.0708" x2="97" y2="109" gradientUnits="userSpaceOnUse">
<stop stop-color="#3ECF8E"/>
<stop offset="1" stop-color="#1F6948"/>
</linearGradient>
</defs>
</svg>
